<?xml version="1.0" encoding="UTF-8"?>
<svg id="Capa_2" data-name="Capa 2" xmlns="http://www.w3.org/2000/svg" viewBox="0 0 779.52 313.56">
  <defs>
    <style>
      .cls-1 {
        fill: #fff;
      }
    </style>
  </defs>
  <g id="Capa_1-2" data-name="Capa 1">
    <path class="cls-1" d="M0,0v313.56h779.52V0H0ZM338.24,28.49h40.25v66.95l58.83-67.38h55.5l-71.05,80.32,72.17,115.46-50.2-.02-51.47-80.95c-3.89,4.66-9.43,11.12-13.77,15.48v65.48h-40.25V28.49ZM538.68,181.84c10.37,0,18.85-8.58,18.85-19.06v-77.34h41.09v77.55c0,33.1-26.79,60.18-59.52,60.18s-59.52-27.08-59.52-60.18v-77.55h40.25v77.34c0,10.48,8.48,19.06,18.85,19.06ZM49.57,181.41h90.45c8.97,0,16.31-7.42,16.31-16.49h0c0-9.07-7.34-16.49-16.31-16.49h-19.28c-40.87,3.06-70.52-19.58-71.17-58.26-.57-33.64,27.45-61.68,61.01-61.68h213.15v42.41H109.95c-9.55,0-17.37,7.9-17.37,17.56h0c0,9.66,7.82,17.56,17.37,17.56h23.93c38.51,1.01,63.8,23.4,63.05,59.54-2.26,38.52-23.94,58-63.48,59.97H49.57v-44.12ZM313.81,140.01v30.89h-63.26v24.03h73.18v28.79h-113.96V84.93h113.96v31.06h-73.18v24.03h63.26ZM717.46,286.36H50.63v-44.76h666.83v44.76ZM670.01,148.43h-7.41l53.38,75.18h-51.26l-53.18-74.9.15-.28h-.15v-41.98h58.37c9.73,0,17.69-8.05,17.69-17.88h0c0-9.84-7.96-17.88-17.69-17.88h-192.23l36.38-43.48h155.96c32.97,0,59.95,27.28,59.95,60.61s-26.98,60.61-59.95,60.61Z"/>
  </g>
</svg>